<svg width="43" height="52" viewBox="0 0 43 52" fill="none" xmlns="http://www.w3.org/2000/svg">
<path d="M10.7313 33.2593H9.65942V35.4062H10.7313C11.3235 35.4062 11.8031 34.9266 11.8031 34.3343C11.8031 33.7421 11.3235 33.2593 10.7313 33.2593Z" fill="#FD907E"/>
<path d="M21.9969 33.2593H20.3876V39.6968H21.9969C22.2931 39.6968 22.5345 39.4554 22.5345 39.1592V33.7968C22.5313 33.5007 22.2899 33.2593 21.9969 33.2593Z" fill="#FD907E"/>
<path d="M37.0156 0H5.89997C2.64581 0 0 2.64581 0 5.89997V45.5968C0 48.851 2.64581 51.4968 5.89997 51.4968H37.0156C40.2698 51.4968 42.9156 48.851 42.9156 45.5968V5.89997C42.9188 2.64581 40.2698 0 37.0156 0ZM10.7313 38.625H9.65947V41.3062C9.65947 42.1946 8.93847 42.9156 8.05009 42.9156C7.16172 42.9156 6.44072 42.1946 6.44072 41.3062V31.65C6.44072 30.7616 7.16172 30.0406 8.05009 30.0406H10.7313C13.0971 30.0406 15.0219 31.9654 15.0219 34.3312C15.0219 36.697 13.0971 38.625 10.7313 38.625ZM25.75 39.1625C25.75 41.2322 24.0666 42.9188 21.9937 42.9188H18.775C17.8866 42.9188 17.1656 42.1978 17.1656 41.3094V31.6532C17.1656 30.7648 17.8866 30.0438 18.775 30.0438H21.9937C24.0634 30.0438 25.75 31.7272 25.75 33.8001V39.1625ZM34.8719 35.4062C35.7603 35.4062 36.4813 36.1272 36.4813 37.0156C36.4813 37.904 35.7603 38.625 34.8719 38.625H31.1157V41.3062C31.1157 42.1946 30.3947 42.9156 29.5063 42.9156C28.6179 42.9156 27.8969 42.1946 27.8969 41.3062V33.7969C27.8969 31.7272 29.5803 30.0406 31.6532 30.0406H34.8719C35.7603 30.0406 36.4813 30.7616 36.4813 31.65C36.4813 32.5383 35.7603 33.2593 34.8719 33.2593H31.6532C31.3571 33.2593 31.1157 33.5007 31.1157 33.7969V35.4062H34.8719Z" fill="#FC573B"/>
</svg>
